<svg width="170" height="157" viewBox="0 0 170 157" fill="none" xmlns="http://www.w3.org/2000/svg">
<path d="M24.9063 144.123C-16.6617 125.707 0.507249 48.0294 27.8018 4.13139C27.9822 3.84123 28.2236 3.58574 28.5562 3.50757C31.0859 2.91298 37.7997 6.35735 48.3783 24.4619C48.859 25.2847 49.825 25.7007 50.7526 25.4824C72.8315 20.2862 105.384 23.2506 120.566 25.6295C121.453 25.7684 122.329 25.3445 122.78 24.5687C126.071 18.9127 133.291 8.31245 141.673 1.21299C142.504 0.509017 143.705 0.58717 144.308 1.4946C155.426 18.2418 190.728 125.711 150.024 141.484C107.79 157.849 66.6123 162.601 24.9063 144.123Z" fill="#FFE0B1"/>
<ellipse cx="35.3709" cy="116.143" rx="35.3709" ry="36.9547" fill="url(#paint0_radial_18_781)"/>
<ellipse cx="133.565" cy="116.143" rx="35.3709" ry="36.9547" fill="url(#paint1_radial_18_781)"/>
<path d="M144.123 126.702C145.883 127.758 149.93 129.975 152.042 130.397" stroke="#5A2305" stroke-width="4.22339" stroke-linecap="round"/>
<path d="M144.123 103.473C147.08 103.473 150.634 101.362 152.042 100.306" stroke="#5A2305" stroke-width="4.22339" stroke-linecap="round"/>
<path d="M144.123 116.671L153.626 115.615" stroke="#5A2305" stroke-width="4.22339" stroke-linecap="round"/>
<path d="M21.1169 99.7776C19.3572 98.7217 15.3098 96.5045 13.1981 96.0821" stroke="#5A2305" stroke-width="4.22339" stroke-linecap="round"/>
<path d="M21.1169 123.006C18.1606 123.006 14.6059 125.118 13.1981 126.174" stroke="#5A2305" stroke-width="4.22339" stroke-linecap="round"/>
<path d="M21.1169 109.808L11.6143 110.864" stroke="#5A2305" stroke-width="4.22339" stroke-linecap="round"/>
<path d="M84.4678 110.864C84.4678 116.671 81.8282 123.006 74.4373 125.118" stroke="#5A2305" stroke-width="4.22339" stroke-linecap="round"/>
<path d="M84.4679 110.864C84.4679 116.671 87.1075 123.006 94.4984 125.118" stroke="#5A2305" stroke-width="4.22339" stroke-linecap="round"/>
<path d="M28.308 12.4862C25.9207 16.3638 22.7079 22.7341 21.553 28.8942C21.2267 30.6346 23.2911 31.7902 24.8681 30.985C27.6965 29.5408 31.9099 27.7882 37.4686 26.2841C38.4039 26.031 39.0855 25.1826 38.9147 24.2288C38.1052 19.7091 34.2205 14.9695 31.2705 12.1041C30.3821 11.2411 28.9574 11.4314 28.308 12.4862Z" fill="#B86539"/>
<path d="M141.683 12.4862C144.071 16.3638 147.284 22.7341 148.438 28.8942C148.765 30.6346 146.7 31.7902 145.123 30.985C142.295 29.5408 138.082 27.7882 132.523 26.2841C131.588 26.031 130.906 25.1826 131.077 24.2288C131.886 19.7091 135.771 14.9695 138.721 12.1041C139.609 11.2411 141.034 11.4314 141.683 12.4862Z" fill="#B86539"/>
<rect x="36.9546" y="84.4678" width="14.7819" height="19.0053" rx="7.39093" fill="#5A2305"/>
<rect x="116.143" y="84.4678" width="14.7819" height="19.0053" rx="7.39093" fill="#5A2305"/>
<path d="M77.6048 104.529C77.0768 107.169 79.1885 110.864 85.5236 110.864C88.1632 110.336 91.3308 108.225 91.8587 105.057C92.3867 101.889 89.2191 100.306 84.4678 100.306C79.7165 100.306 78.1327 101.889 77.6048 104.529Z" fill="#5A2305"/>
<defs>
<radialGradient id="paint0_radial_18_781" cx="0" cy="0" r="1" gradientUnits="userSpaceOnUse" gradientTransform="translate(35.3709 116.143) rotate(90) scale(36.9547 35.3709)">
<stop stop-color="#FF9AA0" stop-opacity="0.54"/>
<stop offset="0.338542" stop-color="#F19D9C" stop-opacity="0.402188"/>
<stop offset="0.671875" stop-color="#F4BFB2" stop-opacity="0.222262"/>
<stop offset="1" stop-color="#F9E8CE" stop-opacity="0"/>
</radialGradient>
<radialGradient id="paint1_radial_18_781" cx="0" cy="0" r="1" gradientUnits="userSpaceOnUse" gradientTransform="translate(133.565 116.143) rotate(90) scale(36.9547 35.3709)">
<stop stop-color="#FF9AA0" stop-opacity="0.54"/>
<stop offset="0.338542" stop-color="#F19D9C" stop-opacity="0.402188"/>
<stop offset="0.671875" stop-color="#F4BFB2" stop-opacity="0.222262"/>
<stop offset="1" stop-color="#F9E8CE" stop-opacity="0"/>
</radialGradient>
</defs>
</svg>
