<svg width="273" height="366" viewBox="0 0 273 366" fill="none" xmlns="http://www.w3.org/2000/svg">
<path d="M186.843 319.135C230.871 328.276 251.765 302.423 236.094 251.496C223.558 210.754 250.273 207.098 265.197 210.362" stroke="#FFE7C2" stroke-width="15.068" stroke-linecap="round"/>
<path d="M186.843 319.135C230.871 328.276 251.765 302.423 236.094 251.496C223.558 210.754 250.273 207.098 265.197 210.362" stroke="url(#paint0_linear_8_76)" stroke-width="15.068" stroke-linecap="round"/>
<path fill-rule="evenodd" clip-rule="evenodd" d="M75.2754 214.592C75.6626 213.325 76.8323 212.459 78.1574 212.459H161.429C162.724 212.459 163.873 213.286 164.286 214.512L180.813 263.681C180.815 263.686 180.811 263.69 180.807 263.69V263.69C180.8 263.69 180.797 263.7 180.803 263.703C194.322 271.517 203.418 286.13 203.418 302.867V312.661C203.418 322.699 200.146 331.973 194.611 339.475C193.005 341.651 194.453 345.058 197.157 345.058H207.185C212.594 345.058 216.979 349.443 216.979 354.852C216.979 360.261 212.594 364.646 207.185 364.646H26.369C20.9598 364.646 16.5748 360.261 16.5748 354.852C16.5748 349.443 20.9598 345.058 26.369 345.058H36.397C39.1016 345.058 40.5493 341.651 38.9434 339.475C33.4079 331.973 30.136 322.699 30.136 312.661V302.867C30.136 283.302 42.5663 266.639 59.9606 260.347C60.8874 260.011 61.6211 259.276 61.9091 258.333L75.2754 214.592Z" fill="#FFE0B1"/>
<path fill-rule="evenodd" clip-rule="evenodd" d="M75.2754 214.592C75.6626 213.325 76.8323 212.459 78.1574 212.459H161.429C162.724 212.459 163.873 213.286 164.286 214.512L180.813 263.681C180.815 263.686 180.811 263.69 180.807 263.69V263.69C180.8 263.69 180.797 263.7 180.803 263.703C194.322 271.517 203.418 286.13 203.418 302.867V312.661C203.418 322.699 200.146 331.973 194.611 339.475C193.005 341.651 194.453 345.058 197.157 345.058H207.185C212.594 345.058 216.979 349.443 216.979 354.852C216.979 360.261 212.594 364.646 207.185 364.646H26.369C20.9598 364.646 16.5748 360.261 16.5748 354.852C16.5748 349.443 20.9598 345.058 26.369 345.058H36.397C39.1016 345.058 40.5493 341.651 38.9434 339.475C33.4079 331.973 30.136 322.699 30.136 312.661V302.867C30.136 283.302 42.5663 266.639 59.9606 260.347C60.8874 260.011 61.6211 259.276 61.9091 258.333L75.2754 214.592Z" fill="url(#paint1_linear_8_76)" fill-opacity="0.2"/>
<path d="M35.5439 205.678C-23.7779 179.397 0.723895 68.5428 39.676 5.89591C39.9335 5.48182 40.2779 5.11722 40.7526 5.00566C44.3627 4.15712 53.944 9.07258 69.0407 34.9097C69.7268 36.0838 71.1053 36.6775 72.429 36.3659C103.938 28.9504 150.394 33.1809 172.06 36.5759C173.325 36.7742 174.575 36.1691 175.219 35.062C179.916 26.9903 190.22 11.8627 202.182 1.73105C203.368 0.726418 205.082 0.837959 205.941 2.13295C221.809 26.0329 272.188 179.402 214.1 201.911C153.828 225.267 95.0625 232.047 35.5439 205.678Z" fill="#FFE0B1"/>
<ellipse cx="50.4779" cy="165.748" rx="50.4779" ry="52.7381" fill="url(#paint2_radial_8_76)"/>
<ellipse cx="190.61" cy="165.748" rx="50.4779" ry="52.7381" fill="url(#paint3_radial_8_76)"/>
<path d="M205.678 180.816C208.19 182.323 213.966 185.487 216.979 186.09" stroke="#5A2305" stroke-width="6.02721" stroke-linecap="round"/>
<path d="M205.678 147.667C209.898 147.667 214.97 144.653 216.979 143.146" stroke="#5A2305" stroke-width="6.02721" stroke-linecap="round"/>
<path d="M205.678 166.502L219.24 164.995" stroke="#5A2305" stroke-width="6.02721" stroke-linecap="round"/>
<path d="M30.136 142.393C27.6247 140.886 21.8486 137.722 18.835 137.119" stroke="#5A2305" stroke-width="6.02721" stroke-linecap="round"/>
<path d="M30.136 175.542C25.9169 175.542 20.844 178.556 18.835 180.063" stroke="#5A2305" stroke-width="6.02721" stroke-linecap="round"/>
<path d="M30.136 156.707L16.5748 158.214" stroke="#5A2305" stroke-width="6.02721" stroke-linecap="round"/>
<path d="M120.544 158.214C120.544 166.502 116.777 175.542 106.229 178.556" stroke="#5A2305" stroke-width="6.02721" stroke-linecap="round"/>
<path d="M120.544 158.214C120.544 166.502 124.311 175.542 134.859 178.556" stroke="#5A2305" stroke-width="6.02721" stroke-linecap="round"/>
<path d="M40.3984 17.8189C36.9914 23.3526 32.4065 32.4437 30.7583 41.2348C30.2927 43.7185 33.2388 45.3677 35.4893 44.2186C39.5256 42.1575 45.5386 39.6564 53.4714 37.51C54.8063 37.1488 55.7789 35.938 55.5351 34.5768C54.3799 28.1267 48.836 21.3628 44.6262 17.2736C43.3583 16.042 41.3251 16.3137 40.3984 17.8189Z" fill="#B86539"/>
<path d="M202.197 17.8189C205.604 23.3526 210.188 32.4437 211.837 41.2348C212.302 43.7185 209.356 45.3677 207.106 44.2186C203.069 42.1575 197.056 39.6564 189.124 37.51C187.789 37.1488 186.816 35.938 187.06 34.5768C188.215 28.1267 193.759 21.3628 197.969 17.2736C199.237 16.042 201.27 16.3137 202.197 17.8189Z" fill="#B86539"/>
<rect x="52.738" y="120.544" width="21.0952" height="27.1224" rx="10.5476" fill="#5A2305"/>
<rect x="165.748" y="120.544" width="21.0952" height="27.1224" rx="10.5476" fill="#5A2305"/>
<path d="M110.75 149.173C109.996 152.94 113.01 158.214 122.051 158.214C125.818 157.461 130.338 154.447 131.092 149.927C131.845 145.406 127.325 143.146 120.544 143.146C113.764 143.146 111.503 145.406 110.75 149.173Z" fill="#5A2305"/>
<path d="M120.544 278.758V363.139" stroke="#5A2305" stroke-width="3.0136" stroke-linecap="round"/>
<path d="M33.4558 362.386C25.6204 360.578 26.6752 354.098 28.182 351.085" stroke="#5A2305" stroke-width="3.0136" stroke-linecap="round" stroke-linejoin="round"/>
<path d="M200.405 362.386C208.24 360.578 207.185 354.098 205.678 351.085" stroke="#5A2305" stroke-width="3.0136" stroke-linecap="round" stroke-linejoin="round"/>
<path d="M45.5102 362.386C37.6749 360.578 38.7296 354.098 40.2364 351.085" stroke="#5A2305" stroke-width="3.0136" stroke-linecap="round" stroke-linejoin="round"/>
<path d="M188.35 362.386C196.185 360.578 195.131 354.098 193.624 351.085" stroke="#5A2305" stroke-width="3.0136" stroke-linecap="round" stroke-linejoin="round"/>
<path d="M99.4489 363.139C96.9376 362.386 92.9696 359.523 97.1887 354.098" stroke="#5A2305" stroke-width="3.0136" stroke-linecap="round" stroke-linejoin="round"/>
<path d="M90.6556 277.252L92.1624 348.825C88.8976 348.071 82.2175 347.921 81.6147 353.345C80.8613 360.126 81.6147 361.632 86.8886 363.893" stroke="#5A2305" stroke-width="3.0136" stroke-linecap="round" stroke-linejoin="round"/>
<path d="M141.639 363.139C144.151 362.386 148.119 359.523 143.9 354.098" stroke="#5A2305" stroke-width="3.0136" stroke-linecap="round" stroke-linejoin="round"/>
<path d="M150.927 277.252L149.421 348.825C152.685 348.071 159.366 347.921 159.968 353.345C160.722 360.126 159.968 361.632 154.694 363.893" stroke="#5A2305" stroke-width="3.0136" stroke-linecap="round" stroke-linejoin="round"/>
<defs>
<linearGradient id="paint0_linear_8_76" x1="194.086" y1="326.15" x2="249.692" y2="297.812" gradientUnits="userSpaceOnUse">
<stop stop-color="#FAC575" stop-opacity="0.74"/>
<stop offset="1" stop-color="#F9D8A5" stop-opacity="0"/>
</linearGradient>
<linearGradient id="paint1_linear_8_76" x1="116.777" y1="212.459" x2="117.531" y2="275.745" gradientUnits="userSpaceOnUse">
<stop stop-color="#D6850E"/>
<stop offset="0.348958" stop-color="#E4A74D"/>
<stop offset="1" stop-color="#FFE7C2"/>
</linearGradient>
<radialGradient id="paint2_radial_8_76" cx="0" cy="0" r="1" gradientUnits="userSpaceOnUse" gradientTransform="translate(50.4779 165.748) rotate(90) scale(52.7381 50.4779)">
<stop stop-color="#FF9AA0" stop-opacity="0.54"/>
<stop offset="0.338542" stop-color="#F19D9C" stop-opacity="0.402188"/>
<stop offset="0.671875" stop-color="#F4BFB2" stop-opacity="0.222262"/>
<stop offset="1" stop-color="#F9E8CE" stop-opacity="0"/>
</radialGradient>
<radialGradient id="paint3_radial_8_76" cx="0" cy="0" r="1" gradientUnits="userSpaceOnUse" gradientTransform="translate(190.61 165.748) rotate(90) scale(52.7381 50.4779)">
<stop stop-color="#FF9AA0" stop-opacity="0.54"/>
<stop offset="0.338542" stop-color="#F19D9C" stop-opacity="0.402188"/>
<stop offset="0.671875" stop-color="#F4BFB2" stop-opacity="0.222262"/>
<stop offset="1" stop-color="#F9E8CE" stop-opacity="0"/>
</radialGradient>
</defs>
</svg>
