<svg width="171" height="164" viewBox="0 0 171 164" fill="none" xmlns="http://www.w3.org/2000/svg">
<path d="M0.657915 52.4134C-0.841929 58.0694 -0.74194 70.0802 11.6568 72.875L51.1526 42.432C43.4868 30.4545 26.6552 5.80075 20.6558 3.00599C13.1566 -0.487457 11.6568 -1.48559 5.65737 3.00599C0.857851 6.59926 0.3246 37.4414 0.657915 52.4134Z" fill="#FFC554"/>
<path d="M8.78722 47.0556C7.92429 50.3187 7.98182 57.248 15.1153 58.8604L37.839 41.2972C33.4285 34.3871 23.7446 20.1637 20.2929 18.5514C15.9782 16.5359 15.1153 15.9601 11.6636 18.5514C8.90225 20.6244 8.59545 38.418 8.78722 47.0556Z" fill="#FFFCF0"/>
<path d="M169.617 52.4134C171.117 58.0694 171.017 70.0802 158.618 72.875L119.123 42.432C126.788 30.4545 143.62 5.80075 149.619 3.00599C157.119 -0.487457 158.618 -1.48559 164.618 3.00599C169.417 6.59926 169.951 37.4414 169.617 52.4134Z" fill="#FFC554"/>
<path d="M6.36399 67.3554C18.2763 39.3266 52.8527 31.6186 85.5455 31.6187H85.546C93.6041 31.6187 102.713 31.6187 118.129 33.0201C142.545 35.2398 165.661 69.5744 168.23 85.5742C170.8 101.574 173.976 138.128 150.712 149.34C121.633 163.354 85.5455 168.61 41.0497 158.8C-9.40227 147.676 -2.13032 87.342 6.36399 67.3554Z" fill="#FFC554"/>
<mask id="mask0_18_820" style="mask-type:alpha" maskUnits="userSpaceOnUse" x="0" y="31" width="171" height="133">
<path d="M6.36399 67.3554C18.2763 39.3266 52.8527 31.6186 85.5455 31.6187H85.546C93.6041 31.6187 102.713 31.6187 118.129 33.0201C142.545 35.2398 165.661 69.5744 168.23 85.5742C170.8 101.574 173.976 138.128 150.712 149.34C121.633 163.354 85.5455 168.61 41.0497 158.8C-9.40227 147.676 -2.13032 87.342 6.36399 67.3554Z" fill="#FFE0B1"/>
</mask>
<g mask="url(#mask0_18_820)">
<path d="M70.7729 108.261C57.4592 115.619 62.3642 138.042 -0.700684 118.071L9.81013 168.874H139.794C164.319 144.232 204.4 99.5724 168.523 118.071C123.677 141.195 119.473 114.568 105.809 108.261C92.1449 101.955 81.7439 102.198 70.7729 108.261Z" fill="#FFFCF0"/>
<g style="mix-blend-mode:multiply">
<ellipse cx="133.163" cy="124.638" rx="35.3709" ry="36.9547" fill="url(#paint0_radial_18_820)" fill-opacity="0.64"/>
</g>
<g style="mix-blend-mode:multiply">
<ellipse cx="34.9687" cy="124.638" rx="35.3709" ry="36.9547" fill="url(#paint1_radial_18_820)" fill-opacity="0.64"/>
</g>
<rect x="36.7361" y="92.9624" width="14.7819" height="19.0053" rx="7.39093" fill="#15110F"/>
<rect x="115.925" y="92.9624" width="14.7819" height="19.0053" rx="7.39093" fill="#15110F"/>
<path d="M86.4093 122.674C86.4093 128.481 83.7697 134.816 76.3788 136.928" stroke="#5A2305" stroke-width="4.22339" stroke-linecap="round"/>
<path d="M86.4094 122.674C86.4094 128.481 89.049 134.816 96.4399 136.928" stroke="#5A2305" stroke-width="4.22339" stroke-linecap="round"/>
<path d="M79.5463 116.339C79.0184 118.978 81.1301 122.674 87.4652 122.674C90.1048 122.146 93.2723 120.034 93.8003 116.867C94.3282 113.699 91.1606 112.115 86.4093 112.115C81.658 112.115 80.0742 113.699 79.5463 116.339Z" fill="#5A2305"/>
</g>
<path d="M161.488 47.0556C162.351 50.3187 162.293 57.248 155.16 58.8604L132.436 41.2972C136.847 34.3871 146.531 20.1637 149.982 18.5514C154.297 16.5359 155.16 15.9601 158.612 18.5514C161.373 20.6244 161.68 38.418 161.488 47.0556Z" fill="#FFFCF0"/>
<path d="M169.617 52.4134C171.117 58.0694 171.017 70.0802 158.618 72.875L119.123 42.432C126.788 30.4545 143.62 5.80075 149.619 3.00599C157.119 -0.487457 158.618 -1.48559 164.618 3.00599C169.417 6.59926 169.951 37.4414 169.617 52.4134Z" fill="#FFC554"/>
<path d="M161.488 47.0556C162.351 50.3187 162.293 57.248 155.16 58.8604L132.436 41.2972C136.847 34.3871 146.531 20.1637 149.982 18.5514C154.297 16.5359 155.16 15.9601 158.612 18.5514C161.373 20.6244 161.68 38.418 161.488 47.0556Z" fill="#FFFCF0"/>
<path d="M6.36399 67.3554C18.2763 39.3266 52.8527 31.6186 85.5455 31.6187H85.546C93.6041 31.6187 102.713 31.6187 118.129 33.0201C142.545 35.2398 165.661 69.5744 168.23 85.5742C170.8 101.574 173.976 138.128 150.712 149.34C121.633 163.354 85.5455 168.61 41.0497 158.8C-9.40227 147.676 -2.13032 87.342 6.36399 67.3554Z" fill="#FFC554"/>
<mask id="mask1_18_820" style="mask-type:alpha" maskUnits="userSpaceOnUse" x="0" y="31" width="171" height="133">
<path d="M6.36399 67.3554C18.2763 39.3266 52.8527 31.6186 85.5455 31.6187H85.546C93.6041 31.6187 102.713 31.6187 118.129 33.0201C142.545 35.2398 165.661 69.5744 168.23 85.5742C170.8 101.574 173.976 138.128 150.712 149.34C121.633 163.354 85.5455 168.61 41.0497 158.8C-9.40227 147.676 -2.13032 87.342 6.36399 67.3554Z" fill="#FFE0B1"/>
</mask>
<g mask="url(#mask1_18_820)">
<path d="M70.7729 108.261C57.4592 115.619 62.3642 138.042 -0.700684 118.071L9.81013 168.874H139.794C164.319 144.232 204.4 99.5724 168.523 118.071C123.677 141.195 119.473 114.568 105.809 108.261C92.1449 101.955 81.7439 102.198 70.7729 108.261Z" fill="#FFFCF0"/>
<g style="mix-blend-mode:multiply">
<ellipse cx="133.163" cy="124.638" rx="35.3709" ry="36.9547" fill="url(#paint2_radial_18_820)" fill-opacity="0.64"/>
</g>
<g style="mix-blend-mode:multiply">
<ellipse cx="34.9687" cy="124.638" rx="35.3709" ry="36.9547" fill="url(#paint3_radial_18_820)" fill-opacity="0.64"/>
</g>
<rect x="36.7361" y="92.9626" width="14.7819" height="19.0053" rx="7.39093" fill="#15110F"/>
<rect x="115.925" y="92.9626" width="14.7819" height="19.0053" rx="7.39093" fill="#15110F"/>
<path d="M86.4093 122.674C86.4093 128.481 83.7697 134.816 76.3788 136.928" stroke="#5A2305" stroke-width="4.22339" stroke-linecap="round"/>
<path d="M86.4094 122.674C86.4094 128.481 89.049 134.816 96.4399 136.928" stroke="#5A2305" stroke-width="4.22339" stroke-linecap="round"/>
<path d="M79.5463 116.339C79.0184 118.978 81.1301 122.674 87.4652 122.674C90.1048 122.146 93.2723 120.034 93.8003 116.867C94.3282 113.699 91.1606 112.115 86.4093 112.115C81.658 112.115 80.0742 113.699 79.5463 116.339Z" fill="#5A2305"/>
</g>
<defs>
<radialGradient id="paint0_radial_18_820" cx="0" cy="0" r="1" gradientUnits="userSpaceOnUse" gradientTransform="translate(133.163 124.638) rotate(90) scale(36.9547 35.3709)">
<stop stop-color="#FF9AA0" stop-opacity="0.54"/>
<stop offset="0.338542" stop-color="#F19D9C" stop-opacity="0.402188"/>
<stop offset="0.671875" stop-color="#F4BFB2" stop-opacity="0.222262"/>
<stop offset="1" stop-color="#F9E8CE" stop-opacity="0"/>
</radialGradient>
<radialGradient id="paint1_radial_18_820" cx="0" cy="0" r="1" gradientUnits="userSpaceOnUse" gradientTransform="translate(34.9687 124.638) rotate(90) scale(36.9547 35.3709)">
<stop stop-color="#FF9AA0" stop-opacity="0.54"/>
<stop offset="0.338542" stop-color="#F19D9C" stop-opacity="0.402188"/>
<stop offset="0.671875" stop-color="#F4BFB2" stop-opacity="0.222262"/>
<stop offset="1" stop-color="#F9E8CE" stop-opacity="0"/>
</radialGradient>
<radialGradient id="paint2_radial_18_820" cx="0" cy="0" r="1" gradientUnits="userSpaceOnUse" gradientTransform="translate(133.163 124.638) rotate(90) scale(36.9547 35.3709)">
<stop stop-color="#FF9AA0" stop-opacity="0.54"/>
<stop offset="0.338542" stop-color="#F19D9C" stop-opacity="0.402188"/>
<stop offset="0.671875" stop-color="#F4BFB2" stop-opacity="0.222262"/>
<stop offset="1" stop-color="#F9E8CE" stop-opacity="0"/>
</radialGradient>
<radialGradient id="paint3_radial_18_820" cx="0" cy="0" r="1" gradientUnits="userSpaceOnUse" gradientTransform="translate(34.9687 124.638) rotate(90) scale(36.9547 35.3709)">
<stop stop-color="#FF9AA0" stop-opacity="0.54"/>
<stop offset="0.338542" stop-color="#F19D9C" stop-opacity="0.402188"/>
<stop offset="0.671875" stop-color="#F4BFB2" stop-opacity="0.222262"/>
<stop offset="1" stop-color="#F9E8CE" stop-opacity="0"/>
</radialGradient>
</defs>
</svg>
