<svg width="261" height="359" viewBox="0 0 261 359" fill="none" xmlns="http://www.w3.org/2000/svg">
<path d="M260 260.5C263.5 281.5 250.5 321 201.5 321C193 313.333 177.6 298 198 298C223.5 298 250.5 290 260 260.5Z" fill="#FFCC6B"/>
<path d="M0.938911 74.7992C-1.20152 82.8709 -1.05882 100.012 16.6354 104L73 60.5548C62.06 43.4617 38.0397 8.27826 29.4779 4.28986C18.7758 -0.695651 16.6354 -2.12008 8.07364 4.28986C1.22424 9.41781 0.463237 53.4327 0.938911 74.7992Z" fill="#FFC554"/>
<path d="M12.5402 67.1534C11.3087 71.8102 11.3908 81.699 21.571 84L54 58.9355C47.7058 49.074 33.8858 28.7759 28.9599 26.4749C22.8025 23.5987 21.571 22.7769 16.6451 26.4749C12.7044 29.4334 12.2665 54.8266 12.5402 67.1534Z" fill="#FFFCF0"/>
<path d="M242.061 74.7992C244.202 82.8709 244.059 100.012 226.365 104L170 60.5548C180.94 43.4617 204.96 8.27826 213.522 4.28986C224.224 -0.695651 226.365 -2.12008 234.926 4.28986C241.776 9.41781 242.537 53.4327 242.061 74.7992Z" fill="#FFC554"/>
<path fill-rule="evenodd" clip-rule="evenodd" d="M81.2754 207.592C81.6626 206.325 82.8323 205.459 84.1574 205.459H167.429C168.724 205.459 169.873 206.286 170.286 207.512L186.813 256.681C186.815 256.686 186.811 256.69 186.807 256.69V256.69C186.8 256.69 186.797 256.7 186.803 256.703C200.322 264.517 209.418 279.13 209.418 295.867V305.661C209.418 315.699 206.146 324.973 200.611 332.475C199.005 334.651 200.453 338.058 203.157 338.058H213.185C218.594 338.058 222.979 342.443 222.979 347.852C222.979 353.261 218.594 357.646 213.185 357.646H32.369C26.9598 357.646 22.5748 353.261 22.5748 347.852C22.5748 342.443 26.9598 338.058 32.369 338.058H42.397C45.1016 338.058 46.5493 334.651 44.9434 332.475C39.4079 324.973 36.136 315.699 36.136 305.661V295.867C36.136 276.302 48.5663 259.639 65.9606 253.347C66.8874 253.011 67.6211 252.276 67.9091 251.333L81.2754 207.592Z" fill="#FFC554"/>
<path fill-rule="evenodd" clip-rule="evenodd" d="M81.2754 207.592C81.6626 206.325 82.8323 205.459 84.1574 205.459H167.429C168.724 205.459 169.873 206.286 170.286 207.512L186.813 256.681C186.815 256.686 186.811 256.69 186.807 256.69V256.69C186.8 256.69 186.797 256.7 186.803 256.703C200.322 264.517 209.418 279.13 209.418 295.867V305.661C209.418 315.699 206.146 324.973 200.611 332.475C199.005 334.651 200.453 338.058 203.157 338.058H213.185C218.594 338.058 222.979 342.443 222.979 347.852C222.979 353.261 218.594 357.646 213.185 357.646H32.369C26.9598 357.646 22.5748 353.261 22.5748 347.852C22.5748 342.443 26.9598 338.058 32.369 338.058H42.397C45.1016 338.058 46.5493 334.651 44.9434 332.475C39.4079 324.973 36.136 315.699 36.136 305.661V295.867C36.136 276.302 48.5663 259.639 65.9606 253.347C66.8874 253.011 67.6211 252.276 67.9091 251.333L81.2754 207.592Z" fill="url(#paint0_linear_18_417)" fill-opacity="0.2"/>
<path d="M39.4558 355.386C31.6204 353.578 32.6752 347.098 34.182 344.085" stroke="#5A2305" stroke-width="3.0136" stroke-linecap="round" stroke-linejoin="round"/>
<path d="M206.405 355.386C214.24 353.578 213.185 347.098 211.678 344.085" stroke="#5A2305" stroke-width="3.0136" stroke-linecap="round" stroke-linejoin="round"/>
<path d="M51.5102 355.386C43.6749 353.578 44.7296 347.098 46.2364 344.085" stroke="#5A2305" stroke-width="3.0136" stroke-linecap="round" stroke-linejoin="round"/>
<path d="M194.35 355.386C202.185 353.578 201.131 347.098 199.624 344.085" stroke="#5A2305" stroke-width="3.0136" stroke-linecap="round" stroke-linejoin="round"/>
<path d="M92.5 341C95.5 341 112 337 126 350V357.5C117.833 357.667 100.5 358 92 357.5C82.6753 356.951 89.5 341 92.5 341Z" fill="#FFFCF0"/>
<path d="M161.5 341C158.5 341 142 337 128 350V357.5C136.167 357.667 153.5 358 162 357.5C171.325 356.951 164.5 341 161.5 341Z" fill="#FFFCF0"/>
<path d="M105.449 356.139C102.937 355.386 98.9696 352.523 103.189 347.098" stroke="#5A2305" stroke-width="3.0136" stroke-linecap="round" stroke-linejoin="round"/>
<path d="M96.6556 270.252L98.1624 341.825C94.8976 341.071 88.2175 340.921 87.6147 346.345C86.8613 353.126 87.6147 354.632 92.8886 356.893" stroke="#5A2305" stroke-width="3.0136" stroke-linecap="round" stroke-linejoin="round"/>
<path d="M126.544 271.758V356.139" stroke="#5A2305" stroke-width="3.0136" stroke-linecap="round"/>
<path d="M147.639 356.139C150.151 355.386 154.119 352.523 149.9 347.098" stroke="#5A2305" stroke-width="3.0136" stroke-linecap="round" stroke-linejoin="round"/>
<path d="M156.927 270.252L155.421 341.825C158.685 341.071 165.366 340.921 165.968 346.345C166.722 353.126 165.968 354.632 160.694 356.893" stroke="#5A2305" stroke-width="3.0136" stroke-linecap="round" stroke-linejoin="round"/>
<path d="M9.08197 96.1232C26.082 56.1232 75.426 45.1231 122.082 45.1232H122.083C133.582 45.1232 146.582 45.1232 168.582 47.1232C203.426 50.2909 236.415 99.2898 240.082 122.123C243.749 144.957 248.282 197.123 215.082 213.123C173.582 233.123 122.082 240.623 58.582 226.623C-13.4181 210.749 -3.04026 124.646 9.08197 96.1232Z" fill="#FFC554"/>
<mask id="mask0_18_417" style="mask-type:alpha" maskUnits="userSpaceOnUse" x="0" y="45" width="243" height="189">
<path d="M9.08197 96.1232C26.082 56.1232 75.426 45.1231 122.082 45.1232H122.083C133.582 45.1232 146.582 45.1232 168.582 47.1232C203.426 50.2909 236.415 99.2898 240.082 122.123C243.749 144.957 248.282 197.123 215.082 213.123C173.582 233.123 122.082 240.623 58.582 226.623C-13.4181 210.749 -3.04026 124.646 9.08197 96.1232Z" fill="#FFE0B1"/>
</mask>
<g mask="url(#mask0_18_417)">
<path d="M101 154.5C82 165 89 197 -1 168.5L14 241H199.5C234.5 205.833 291.7 142.1 240.5 168.5C176.5 201.5 170.5 163.5 151 154.5C131.5 145.5 116.657 145.848 101 154.5Z" fill="#FFFCF0"/>
<g style="mix-blend-mode:multiply">
<ellipse cx="190.036" cy="177.871" rx="50.4779" ry="52.7381" fill="url(#paint1_radial_18_417)" fill-opacity="0.64"/>
</g>
<g style="mix-blend-mode:multiply">
<ellipse cx="49.9039" cy="177.871" rx="50.4779" ry="52.7381" fill="url(#paint2_radial_18_417)" fill-opacity="0.64"/>
</g>
<rect x="52.426" y="132.667" width="21.0952" height="27.1224" rx="10.5476" fill="#15110F"/>
<rect x="165.436" y="132.667" width="21.0952" height="27.1224" rx="10.5476" fill="#15110F"/>
<path d="M123.315 175.068C123.315 183.355 119.548 192.396 109 195.41" stroke="#5A2305" stroke-width="6.02721" stroke-linecap="round"/>
<path d="M123.315 175.068C123.315 183.355 127.082 192.396 137.629 195.41" stroke="#5A2305" stroke-width="6.02721" stroke-linecap="round"/>
<path d="M113.521 166.027C112.767 169.794 115.781 175.068 124.822 175.068C128.589 174.315 133.109 171.301 133.862 166.781C134.616 162.26 130.095 160 123.315 160C116.534 160 114.274 162.26 113.521 166.027Z" fill="#5A2305"/>
</g>
<path d="M230.46 67.1534C231.691 71.8102 231.609 81.699 221.429 84L189 58.9355C195.294 49.074 209.114 28.7759 214.04 26.4749C220.197 23.5987 221.429 22.7769 226.355 26.4749C230.296 29.4334 230.733 54.8266 230.46 67.1534Z" fill="#FFFCF0"/>
<defs>
<linearGradient id="paint0_linear_18_417" x1="122.777" y1="205.459" x2="123.531" y2="268.745" gradientUnits="userSpaceOnUse">
<stop stop-color="#D6850E"/>
<stop offset="0.348958" stop-color="#E4A74D"/>
<stop offset="1" stop-color="#FFE7C2"/>
</linearGradient>
<radialGradient id="paint1_radial_18_417" cx="0" cy="0" r="1" gradientUnits="userSpaceOnUse" gradientTransform="translate(190.036 177.871) rotate(90) scale(52.7381 50.4779)">
<stop stop-color="#FF9AA0" stop-opacity="0.54"/>
<stop offset="0.338542" stop-color="#F19D9C" stop-opacity="0.402188"/>
<stop offset="0.671875" stop-color="#F4BFB2" stop-opacity="0.222262"/>
<stop offset="1" stop-color="#F9E8CE" stop-opacity="0"/>
</radialGradient>
<radialGradient id="paint2_radial_18_417" cx="0" cy="0" r="1" gradientUnits="userSpaceOnUse" gradientTransform="translate(49.9039 177.871) rotate(90) scale(52.7381 50.4779)">
<stop stop-color="#FF9AA0" stop-opacity="0.54"/>
<stop offset="0.338542" stop-color="#F19D9C" stop-opacity="0.402188"/>
<stop offset="0.671875" stop-color="#F4BFB2" stop-opacity="0.222262"/>
<stop offset="1" stop-color="#F9E8CE" stop-opacity="0"/>
</radialGradient>
</defs>
</svg>
