<svg width="108" height="100" viewBox="0 0 108 100" fill="none" xmlns="http://www.w3.org/2000/svg">
<path d="M17.3154 90.6243C-8.24562 79.2998 2.31192 31.5342 19.0959 4.54047C19.2069 4.36205 19.3553 4.20495 19.5598 4.15688C21.1154 3.79125 25.2438 5.90926 31.7488 17.0422C32.0444 17.5481 32.6384 17.8039 33.2088 17.6696C46.7856 14.4744 66.803 16.2973 76.1386 17.7601C76.6838 17.8455 77.2224 17.5848 77.4999 17.1078C79.5235 13.6298 83.9634 7.1115 89.1176 2.74589C89.6287 2.313 90.3672 2.36106 90.7377 2.91906C97.5747 13.2173 119.282 79.3023 94.253 89.0012C68.2825 99.0648 42.9613 101.986 17.3154 90.6243Z" stroke="#144936" stroke-width="4"/>
<path d="M90.6244 79.9116C91.7065 80.5609 94.1953 81.9243 95.4939 82.184" stroke="#144936" stroke-width="4" stroke-linecap="round"/>
<path d="M90.6244 65.628C92.4423 65.628 94.6282 64.3294 95.4939 63.6802" stroke="#144936" stroke-width="4" stroke-linecap="round"/>
<path d="M90.6244 73.7435L96.4678 73.0942" stroke="#144936" stroke-width="4" stroke-linecap="round"/>
<path d="M14.9852 63.355C13.9031 62.7057 11.4143 61.3423 10.1158 61.0826" stroke="#144936" stroke-width="4" stroke-linecap="round"/>
<path d="M14.9852 77.6391C13.1673 77.6391 10.9814 78.9377 10.1158 79.5869" stroke="#144936" stroke-width="4" stroke-linecap="round"/>
<path d="M14.9852 69.5231L9.14187 70.1724" stroke="#144936" stroke-width="4" stroke-linecap="round"/>
<path d="M53.9411 70.1724C53.9411 73.7433 52.3179 77.6389 47.7731 78.9374" stroke="#144936" stroke-width="4" stroke-linecap="round"/>
<path d="M53.941 70.1724C53.941 73.7433 55.5642 77.6389 60.109 78.9374" stroke="#144936" stroke-width="4" stroke-linecap="round"/>
<path d="M88.3777 19.1298C88.7615 19.7893 89.169 20.5983 89.4796 21.4495C89.8475 22.4579 88.6645 23.2253 87.6595 22.848C87.1739 22.6657 86.6184 22.4805 85.9937 22.3042C85.4147 22.1407 84.9894 21.608 85.2079 21.0474C85.5089 20.275 86.0924 19.5146 86.6599 18.9141C87.1652 18.3794 88.0077 18.4939 88.3777 19.1298Z" stroke="#144936" stroke-width="4"/>
<path d="M20.6223 19.1298C20.2385 19.7893 19.831 20.5983 19.5204 21.4495C19.1525 22.4579 20.3355 23.2253 21.3405 22.848C21.8261 22.6657 22.3816 22.4805 23.0063 22.3042C23.5853 22.1407 24.0106 21.608 23.7921 21.0474C23.4911 20.275 22.9076 19.5146 22.3401 18.9141C21.8348 18.3794 20.9923 18.4939 20.6223 19.1298Z" stroke="#144936" stroke-width="4"/>
<rect x="24.7241" y="53.9409" width="9.08968" height="11.6867" rx="4.54484" fill="#144936"/>
<rect x="73.4188" y="53.9409" width="9.08968" height="11.6867" rx="4.54484" fill="#144936"/>
<path d="M49.7207 66.2767C49.3961 67.8999 50.6946 70.1723 54.5902 70.1723C56.2134 69.8477 58.1612 68.5492 58.4858 66.6014C58.8104 64.6536 56.8626 63.6797 53.941 63.6797C51.0193 63.6797 50.0454 64.6536 49.7207 66.2767Z" fill="#144936"/>
</svg>
