<svg width="305" height="358" viewBox="0 0 305 358" fill="none" xmlns="http://www.w3.org/2000/svg">
<mask id="mask0_18_320" style="mask-type:alpha" maskUnits="userSpaceOnUse" x="47" y="185" width="201" height="153">
<path fill-rule="evenodd" clip-rule="evenodd" d="M106.275 187.592C106.663 186.325 107.832 185.459 109.157 185.459H192.429C193.724 185.459 194.873 186.286 195.286 187.512L211.813 236.681C211.815 236.686 211.811 236.69 211.807 236.69V236.69C211.8 236.69 211.797 236.7 211.803 236.703C225.322 244.517 234.418 259.13 234.418 275.867V285.661C234.418 295.699 231.146 304.973 225.611 312.475C224.005 314.651 225.453 318.058 228.157 318.058H238.185C243.594 318.058 247.979 322.443 247.979 327.852C247.979 333.261 243.594 337.646 238.185 337.646H57.369C51.9598 337.646 47.5748 333.261 47.5748 327.852C47.5748 322.443 51.9598 318.058 57.369 318.058H67.397C70.1016 318.058 71.5493 314.651 69.9434 312.475C64.4079 304.973 61.136 295.699 61.136 285.661V275.867C61.136 256.302 73.5663 239.639 90.9606 233.347C91.8874 233.011 92.6211 232.276 92.9091 231.333L106.275 187.592Z" fill="#292B2F"/>
</mask>
<g mask="url(#mask0_18_320)">
<path fill-rule="evenodd" clip-rule="evenodd" d="M106.275 187.592C106.663 186.325 107.832 185.459 109.157 185.459H192.429C193.724 185.459 194.873 186.286 195.286 187.512L211.813 236.681C211.815 236.686 211.811 236.69 211.807 236.69V236.69C211.8 236.69 211.797 236.7 211.803 236.703C225.322 244.517 234.418 259.13 234.418 275.867V285.661C234.418 295.699 231.146 304.973 225.611 312.475C224.005 314.651 225.453 318.058 228.157 318.058H238.185C243.594 318.058 247.979 322.443 247.979 327.852C247.979 333.261 243.594 337.646 238.185 337.646H57.369C51.9598 337.646 47.5748 333.261 47.5748 327.852C47.5748 322.443 51.9598 318.058 57.369 318.058H67.397C70.1016 318.058 71.5493 314.651 69.9434 312.475C64.4079 304.973 61.136 295.699 61.136 285.661V275.867C61.136 256.302 73.5663 239.639 90.9606 233.347C91.8874 233.011 92.6211 232.276 92.9091 231.333L106.275 187.592Z" fill="#292B2F"/>
<path d="M102.133 199.261L188.692 198L191.433 207.459L181.5 338H104.829L99 207.459L102.133 199.261Z" fill="white"/>
</g>
<path d="M62.8187 275.449C37.764 259.528 6.02405 291.93 34.4968 325.452C62.9695 358.974 111.469 319.552 62.8187 275.449Z" fill="#292B2F" stroke="#858B98" stroke-width="3"/>
<path d="M81.2323 311.64L90 203.908L128 202L126.648 313.761C126.556 321.402 122.632 328.487 116.204 332.619C100.357 342.806 79.7041 330.417 81.2323 311.64Z" fill="#292B2F" stroke="#858B98" stroke-width="3" stroke-linecap="round"/>
<path d="M225.181 275.449C250.236 259.528 281.976 291.93 253.503 325.452C225.03 358.974 176.531 319.552 225.181 275.449Z" fill="#292B2F" stroke="#858B98" stroke-width="3"/>
<path d="M206.768 311.64L198 203.908L160 202L161.352 313.761C161.444 321.402 165.368 328.487 171.796 332.619C187.643 342.806 208.296 330.417 206.768 311.64Z" fill="#292B2F" stroke="#858B98" stroke-width="3" stroke-linecap="round"/>
<path d="M183 259C183 302.631 166.211 338 145.5 338C124.789 338 108 302.631 108 259C108 188.488 124.789 180 145.5 180C166.211 180 183 186.529 183 259Z" fill="white"/>
<path d="M183 259C183 302.631 166.211 338 145.5 338C124.789 338 108 302.631 108 259C108 188.488 124.789 180 145.5 180C166.211 180 183 186.529 183 259Z" fill="url(#paint0_linear_18_320)" fill-opacity="0.2"/>
<path d="M55.0759 79.4196C25.3511 98.3087 -12.3049 59.8662 21.4749 20.0962C55.2548 -19.6737 112.794 27.0965 55.0759 79.4196Z" fill="#292B2F"/>
<path d="M271.502 10.2514C241.777 -8.63762 204.121 29.8049 237.901 69.5748C271.681 109.345 329.22 62.5746 271.502 10.2514Z" fill="#292B2F"/>
<path d="M34.0817 73.123C51.0818 33.123 100.426 22.123 147.082 22.123H147.082C158.582 22.1231 171.582 22.1231 193.582 24.1231C228.426 27.2907 261.415 76.2897 265.082 99.1231C268.748 121.956 273.282 174.123 240.082 190.123C198.582 210.123 147.082 217.623 83.5817 203.623C11.5817 187.749 21.9595 101.646 34.0817 73.123Z" fill="white"/>
<ellipse cx="74.9036" cy="154.871" rx="50.4779" ry="52.7381" fill="url(#paint1_radial_18_320)"/>
<ellipse cx="215.036" cy="154.871" rx="50.4779" ry="52.7381" fill="url(#paint2_radial_18_320)"/>
<path d="M100.019 153.339C73.2974 175.503 31.6264 144.973 59.6985 102.585C87.7707 60.1964 149.944 95.5991 100.019 153.339Z" fill="#292B2F"/>
<path d="M216.019 91.5866C189.297 69.422 147.626 99.9526 175.699 142.341C203.771 184.729 265.944 149.326 216.019 91.5866Z" fill="#292B2F"/>
<rect x="79.4258" y="111.667" width="17.0952" height="23.1224" rx="8.54761" fill="#292B2F" stroke="white" stroke-width="4"/>
<rect x="192.436" y="111.667" width="17.0952" height="23.1224" rx="8.54761" fill="#292B2F" stroke="white" stroke-width="4"/>
<path d="M135.438 138.296C134.684 142.063 137.698 147.337 146.739 147.337C150.506 146.584 155.026 143.57 155.779 139.05C156.533 134.529 152.012 132.269 145.232 132.269C138.451 132.269 136.191 134.529 135.438 138.296Z" fill="#292B2F"/>
<path d="M145.426 146.123V163.123" stroke="#292B2F" stroke-width="6" stroke-linecap="round"/>
<path d="M125.426 160.123C141.495 170.99 160.121 164.651 167.426 160.123" stroke="#292B2F" stroke-width="6" stroke-linecap="round"/>
<defs>
<linearGradient id="paint0_linear_18_320" x1="145.5" y1="180" x2="145.5" y2="338" gradientUnits="userSpaceOnUse">
<stop stop-color="#BCC0C9"/>
<stop offset="0.557292" stop-color="white" stop-opacity="0"/>
</linearGradient>
<radialGradient id="paint1_radial_18_320" cx="0" cy="0" r="1" gradientUnits="userSpaceOnUse" gradientTransform="translate(74.9036 154.871) rotate(90) scale(52.7381 50.4779)">
<stop stop-color="#FF9AA0" stop-opacity="0.54"/>
<stop offset="0.338542" stop-color="#F19D9C" stop-opacity="0.402188"/>
<stop offset="0.671875" stop-color="#F4BFB2" stop-opacity="0.222262"/>
<stop offset="1" stop-color="#F9E8CE" stop-opacity="0"/>
</radialGradient>
<radialGradient id="paint2_radial_18_320" cx="0" cy="0" r="1" gradientUnits="userSpaceOnUse" gradientTransform="translate(215.036 154.871) rotate(90) scale(52.7381 50.4779)">
<stop stop-color="#FF9AA0" stop-opacity="0.54"/>
<stop offset="0.338542" stop-color="#F19D9C" stop-opacity="0.402188"/>
<stop offset="0.671875" stop-color="#F4BFB2" stop-opacity="0.222262"/>
<stop offset="1" stop-color="#F9E8CE" stop-opacity="0"/>
</radialGradient>
</defs>
</svg>
