<svg width="214" height="148" viewBox="0 0 214 148" fill="none" xmlns="http://www.w3.org/2000/svg">
<path d="M38.5928 55.651C17.764 68.8869 -8.62231 41.9495 15.0479 14.0818C38.7182 -13.7858 79.0372 18.987 38.5928 55.651Z" fill="#292B2F"/>
<path d="M190.247 7.18352C169.418 -6.05246 143.032 20.885 166.702 48.7527C190.372 76.6203 230.691 43.8474 190.247 7.18352Z" fill="#292B2F"/>
<path d="M23.8818 51.239C35.7941 23.2101 70.3705 15.5022 103.063 15.5022H103.064C111.122 15.5022 120.231 15.5022 135.647 16.9036C160.063 19.1233 183.179 53.4579 185.748 69.4577C188.318 85.4575 191.494 122.012 168.23 133.223C139.15 147.238 103.063 152.493 58.5675 142.683C8.11555 131.56 15.3875 71.2255 23.8818 51.239Z" fill="white"/>
<ellipse cx="52.4866" cy="108.522" rx="35.3709" ry="36.9547" fill="url(#paint0_radial_18_767)"/>
<ellipse cx="150.68" cy="108.522" rx="35.3709" ry="36.9547" fill="url(#paint1_radial_18_767)"/>
<path d="M70.0854 107.448C51.3611 122.979 22.1613 101.586 41.8321 71.8833C61.5028 42.181 105.069 66.9884 70.0854 107.448Z" fill="#292B2F"/>
<path d="M151.369 64.1768C132.645 48.6455 103.445 70.039 123.116 99.7412C142.786 129.444 186.353 104.636 151.369 64.1768Z" fill="#292B2F"/>
<rect x="55.6553" y="78.2476" width="11.979" height="16.2024" rx="5.98949" fill="#292B2F" stroke="white" stroke-width="2.80288"/>
<rect x="134.844" y="78.2476" width="11.979" height="16.2024" rx="5.98949" fill="#292B2F" stroke="white" stroke-width="2.80288"/>
<path d="M94.904 96.9072C94.376 99.5468 96.4877 103.242 102.823 103.242C105.462 102.714 108.63 100.603 109.158 97.4352C109.686 94.2676 106.518 92.6838 101.767 92.6838C97.0157 92.6838 95.4319 94.2676 94.904 96.9072Z" fill="#292B2F"/>
<path d="M101.903 102.391V114.304" stroke="#292B2F" stroke-width="4.20433" stroke-linecap="round"/>
<path d="M87.8885 112.202C99.1488 119.816 112.201 115.374 117.319 112.202" stroke="#292B2F" stroke-width="4.20433" stroke-linecap="round"/>
<defs>
<radialGradient id="paint0_radial_18_767" cx="0" cy="0" r="1" gradientUnits="userSpaceOnUse" gradientTransform="translate(52.4866 108.522) rotate(90) scale(36.9547 35.3709)">
<stop stop-color="#FF9AA0" stop-opacity="0.54"/>
<stop offset="0.338542" stop-color="#F19D9C" stop-opacity="0.402188"/>
<stop offset="0.671875" stop-color="#F4BFB2" stop-opacity="0.222262"/>
<stop offset="1" stop-color="#F9E8CE" stop-opacity="0"/>
</radialGradient>
<radialGradient id="paint1_radial_18_767" cx="0" cy="0" r="1" gradientUnits="userSpaceOnUse" gradientTransform="translate(150.68 108.522) rotate(90) scale(36.9547 35.3709)">
<stop stop-color="#FF9AA0" stop-opacity="0.54"/>
<stop offset="0.338542" stop-color="#F19D9C" stop-opacity="0.402188"/>
<stop offset="0.671875" stop-color="#F4BFB2" stop-opacity="0.222262"/>
<stop offset="1" stop-color="#F9E8CE" stop-opacity="0"/>
</radialGradient>
</defs>
</svg>
